<svg id="Bahan_copy" viewBox="0 0 64 64" xmlns="http://www.w3.org/2000/svg" data-name="Bahan copy"><g fill="rgb(0,0,0)"><path d="m15.49072 4h-9.90478a1 1 0 0 0 -1 1v9.9043a1.00005 1.00005 0 0 0 1 1h9.90478a1.00005 1.00005 0 0 0 1-1v-9.9043a1 1 0 0 0 -1-1zm-1 9.9043h-7.90478v-7.9043h7.90478z"/><path d="m15.49072 26.04785h-9.90478a1.00005 1.00005 0 0 0 -1 1v9.9043a1.00005 1.00005 0 0 0 1 1h9.90478a1.00005 1.00005 0 0 0 1-1v-9.9043a1.00005 1.00005 0 0 0 -1-1zm-1 9.9043h-7.90478v-7.9043h7.90478z"/><path d="m15.49072 48.0957h-9.90478a1.00005 1.00005 0 0 0 -1 1v9.9043a1 1 0 0 0 1 1h9.90478a1 1 0 0 0 1-1v-9.9043a1.00005 1.00005 0 0 0 -1-1zm-1 9.9043h-7.90478v-7.9043h7.90478z"/><path d="m23.98584 8.23926h24.76123a1.0002 1.0002 0 0 0 -.00007-2h-24.76116a1.0002 1.0002 0 0 0 0 2z"/><path d="m23.74854 14.98242h34.66552a1.00011 1.00011 0 0 0 -.00005-2h-34.66547a1.00012 1.00012 0 0 0 0 2z"/><path d="m23.74854 29.99707h19.80908a1.00019 1.00019 0 0 0 -.00007-2h-19.809a1.0002 1.0002 0 0 0 -.00001 2z"/><path d="m58.41406 35.03027h-34.66552a1.00012 1.00012 0 0 0 .00005 2h34.66547a1.00011 1.00011 0 0 0 0-2z"/><path d="m23.74854 52.80859h29.71337a1.0002 1.0002 0 0 0 -.00007-2h-29.7133a1.00011 1.00011 0 0 0 0 2z"/><path d="m58.41406 56.999h-34.66552a1.00012 1.00012 0 0 0 .00005 2h34.66547a1.00011 1.00011 0 0 0 0-2z"/></g></svg>