<svg id="Layer_1" height="512" viewBox="0 0 1000 1000" width="512" xmlns="http://www.w3.org/2000/svg" data-name="Layer 1"><path d="m179 222.26h-79a16 16 0 0 1 0-32h79a16 16 0 0 1 0 32z"/><path d="m144.52 149.2h-44.52a16 16 0 0 1 0-32h44.52a16 16 0 1 1 0 32z"/><path d="m179 368.39h-79a16 16 0 0 1 0-32h79a16 16 0 0 1 0 32z"/><path d="m144.52 295.33h-44.52a16 16 0 0 1 0-32h44.52a16 16 0 1 1 0 32z"/><path d="m179 514.52h-79a16 16 0 0 1 0-32h79a16 16 0 0 1 0 32z"/><path d="m144.52 441.45h-44.52a16 16 0 0 1 0-32h44.52a16 16 0 1 1 0 32z"/><path d="m179 660.65h-79a16 16 0 0 1 0-32h79a16 16 0 0 1 0 32z"/><path d="m144.52 587.58h-44.52a16 16 0 0 1 0-32h44.52a16 16 0 0 1 0 32z"/><path d="m179 806.77h-79a16 16 0 0 1 0-32h79a16 16 0 0 1 0 32z"/><path d="m144.52 733.71h-44.52a16 16 0 0 1 0-32h44.52a16 16 0 0 1 0 32z"/><path d="m900 915.86h-799.72a16 16 0 0 1 -16-16v-799.72a16 16 0 0 1 32 0v783.72h783.72a16 16 0 0 1 0 32z"/><path d="m384.46 806.83a16 16 0 0 1 0-32l414.93-.15a16 16 0 1 1 0 32z"/><path d="m246.48 806.87a16 16 0 0 1 0-32h35.19a16 16 0 0 1 0 32z"/><path d="m704.25 712.39a67.4 67.4 0 1 1 67.4-67.4 67.48 67.48 0 0 1 -67.4 67.4zm0-102.8a35.4 35.4 0 1 0 35.4 35.4 35.45 35.45 0 0 0 -35.4-35.4z"/><path d="m333.06 858.27a67.4 67.4 0 1 1 67.4-67.4 67.48 67.48 0 0 1 -67.4 67.4zm0-102.8a35.4 35.4 0 1 0 35.4 35.4 35.44 35.44 0 0 0 -35.4-35.4z"/><path d="m621.63 420.92a67.4 67.4 0 1 1 67.37-67.4 67.48 67.48 0 0 1 -67.37 67.4zm0-102.8a35.4 35.4 0 1 0 35.37 35.4 35.44 35.44 0 0 0 -35.37-35.4z"/><path d="m374.39 275.14a67.41 67.41 0 1 1 67.4-67.4 67.48 67.48 0 0 1 -67.4 67.4zm0-102.81a35.41 35.41 0 1 0 35.4 35.41 35.45 35.45 0 0 0 -35.4-35.41z"/><path d="m451.81 573.29a67.4 67.4 0 1 1 67.4-67.4 67.48 67.48 0 0 1 -67.4 67.4zm0-102.8a35.4 35.4 0 1 0 35.4 35.4 35.45 35.45 0 0 0 -35.4-35.4z"/><path d="m755.64 660.56a16 16 0 0 1 0-32h43.76a16 16 0 1 1 0 32z"/><path d="m246.48 660.75a16 16 0 0 1 0-32l406.38-.15a16 16 0 0 1 0 32z"/><path d="m502.77 515.22a16 16 0 0 1 0-32l296.62-.11a16 16 0 1 1 0 32l-296.61.11z"/><path d="m246.48 515.3a16 16 0 0 1 0-32l154.35-.05a16 16 0 0 1 0 32h-154.36z"/><path d="m673 369.37a16 16 0 1 1 0-32h126.34a16 16 0 1 1 0 32z"/><path d="m246.48 369.51a16 16 0 0 1 0-32l323.75-.1a16 16 0 0 1 0 32l-323.76.1z"/><path d="m425.79 223.67a16 16 0 0 1 0-32l373.6-.13a16 16 0 0 1 0 32l-373.59.13z"/><path d="m246.48 223.74a16 16 0 0 1 0-32h76.52a16 16 0 0 1 0 32z"/></svg>