<svg id="Capa_1" enable-background="new 0 0 512 512" height="512" viewBox="0 0 512 512" width="512" xmlns="http://www.w3.org/2000/svg"><g><path d="m497 40h-226v-25c0-8.284-6.716-15-15-15s-15 6.716-15 15v25h-226c-8.284 0-15 6.716-15 15v320c0 8.284 6.716 15 15 15h139.006l-31.97 81.524c-3.024 7.712.776 16.416 8.488 19.44 7.712 3.024 16.416-.776 19.44-8.488l36.265-92.476h54.771v107c0 8.284 6.716 15 15 15s15-6.716 15-15v-107h54.771l36.265 92.476c3.024 7.712 11.728 11.513 19.44 8.488 7.712-3.024 11.513-11.728 8.488-19.44l-31.97-81.524h139.006c8.284 0 15-6.716 15-15v-320c0-8.284-6.716-15-15-15zm-15 320h-452v-290h452z"/><path d="m226 100h-150c-8.284 0-15 6.716-15 15v60c0 8.284 6.716 15 15 15h150c8.284 0 15-6.716 15-15v-60c0-8.284-6.716-15-15-15zm-15 60h-120v-30h120z"/><path d="m226 220h-150c-8.284 0-15 6.716-15 15v80c0 8.284 6.716 15 15 15h150c8.284 0 15-6.716 15-15v-80c0-8.284-6.716-15-15-15zm-15 80h-120v-50h120z"/><path d="m286 330h150c8.284 0 15-6.716 15-15v-200c0-8.284-6.716-15-15-15h-150c-8.284 0-15 6.716-15 15v200c0 8.284 6.716 15 15 15zm15-200h120v170h-120z"/></g></svg>