<svg id="Layer_1" enable-background="new 0 0 512 512" height="512" viewBox="0 0 512 512" width="512" xmlns="http://www.w3.org/2000/svg"><path d="m267.734 132.12-22.006 23.751c-3.152 3.403-7.44 5.126-11.74 5.126-3.891 0-7.791-1.41-10.87-4.264-6.482-6.005-6.868-16.129-.862-22.61l17.742-19.149v-41.498c0-8.837 7.163-16 16-16s16 7.163 16 16v47.771c0 4.031-1.522 7.915-4.264 10.873zm234.458 256.76v107.118c0 8.837-7.163 16-16 16h-89.018c-8.837 0-16-7.163-16-16v-107.118c0-8.837 7.163-16 16-16h28.509v-31.781h-153.685v31.781h28.509c8.837 0 16 7.163 16 16v107.118c0 8.837-7.163 16-16 16h-89.018c-8.837 0-16-7.163-16-16v-107.118c0-8.837 7.163-16 16-16h28.509v-31.781h-153.682v31.781h28.504c8.837 0 16 7.163 16 16v107.118c0 8.837-7.163 16-16 16h-89.012c-8.837 0-16-7.163-16-16v-107.118c0-8.837 7.163-16 16-16h28.509s0-47.24 0-47.781c0-8.837 7.163-16 16-16h169.682v-66.496c-25.677-3.373-50.478-14.893-70.163-34.579-47.512-47.512-47.512-124.818 0-172.33s124.818-47.512 172.33 0 47.512 124.818 0 172.33c-19.687 19.687-44.489 31.207-70.167 34.579v66.496h169.686c8.837 0 16 7.163 16 16v47.781h28.509c8.835 0 15.998 7.163 15.998 16zm-309.73-203.484c35.035 35.035 92.041 35.035 127.076 0 35.034-35.035 35.034-92.041 0-127.076-17.517-17.517-40.528-26.276-63.538-26.276s-46.021 8.759-63.538 26.276c-35.034 35.035-35.034 92.041 0 127.076zm-93.642 219.484h-57.012v75.118h57.012zm185.687 0h-57.018v75.118h57.018zm185.685 0h-57.018v75.118h57.018z"/></svg>