<svg clip-rule="evenodd" fill-rule="evenodd" height="512" image-rendering="optimizeQuality" shape-rendering="geometricPrecision" text-rendering="geometricPrecision" viewBox="0 0 43.3492 43.3492" width="512" xmlns="http://www.w3.org/2000/svg"><g id="Layer_x0020_1"><g id="_222235048"><path id="_222235528" d="m41.2945 31.5297v-21.4857c0-1.7974-1.3916-3.268-3.0926-3.268h-33.0546c-1.701 0-3.0926 1.4706-3.0926 3.268v21.4857zm-3.1448-3.1447v-18.341c0-.0339-.0087-.0869-.0296-.1232h-32.891c-.0209.0363-.0296.0893-.0296.1232v18.341z"/><path id="_222235480" d="m2.1346 36.5731h39.08c1.1741 0 2.1346-.9605 2.1346-2.1346v-2.1347h-43.3492v2.1347c0 1.1741.9605 2.1346 2.1346 2.1346zm23.6803-3.7855h-8.2806v.7919c0 .4355.3395.7918.7545.7918h6.7716c.415 0 .7545-.3563.7545-.7918z"/></g></g></svg>