<svg id="Layer_2_00000116232189282448647340000015780213883393932436_" enable-background="new 0 0 512 512" viewBox="0 0 512 512" xmlns="http://www.w3.org/2000/svg"><g id="Icon"><path id="_36" d="m349.4 391.8c-.6 0-1.3-.1-1.9-.4-1.9-.8-3.1-2.6-3.1-4.6v-69.8h-176.8v69.7c0 2-1.2 3.9-3.1 4.6-1.9.8-4 .4-5.4-1.1l-130.8-130.7c-.9-.9-1.5-2.2-1.5-3.5s.5-2.6 1.5-3.5l130.8-130.8c1.4-1.4 3.6-1.9 5.4-1.1 1.9.8 3.1 2.6 3.1 4.6v69.8h176.8v-69.7c0-2 1.2-3.8 3.1-4.6s4-.3 5.5 1.1l130.8 130.8c.9.9 1.5 2.2 1.5 3.5s-.5 2.6-1.5 3.5l-130.8 130.7c-1 1-2.3 1.5-3.6 1.5zm-186.8-84.8h186.8c2.8 0 5 2.2 5 5v62.7l118.7-118.7-118.7-118.7v62.7c0 2.8-2.2 5-5 5h-186.8c-2.8 0-5-2.2-5-5v-62.7l-118.7 118.7 118.7 118.7v-62.7c0-2.7 2.2-5 5-5z"/></g></svg>