<?xml version="1.0" encoding="iso-8859-1"?>
<!-- Generator: Adobe Illustrator 19.0.0, SVG Export Plug-In . SVG Version: 6.00 Build 0)  -->
<svg version="1.1" id="Layer_1" xmlns="http://www.w3.org/2000/svg" xmlns:xlink="http://www.w3.org/1999/xlink" x="0px" y="0px"
	 viewBox="0 0 512 512" style="enable-background:new 0 0 512 512;" xml:space="preserve">
<g>
	<g>
		<path d="M511.003,496.262l-33.019-72.64c-42.012-92.429-42.012-242.82,0-335.245l33.019-72.641
			c1.92-4.224,1.018-9.196-2.262-12.477c-3.279-3.28-8.249-4.179-12.477-2.262l-72.641,33.019
			c-92.431,42.013-242.82,42.012-335.245,0L15.737,0.997C11.514-0.919,6.543-0.021,3.26,3.259c-3.28,3.281-4.182,8.253-2.262,12.477
			l33.019,72.641c42.012,92.428,42.012,242.817,0,335.245l-33.019,72.64c-1.92,4.224-1.018,9.196,2.262,12.477
			c3.283,3.283,8.257,4.182,12.477,2.262l72.64-33.019c92.425-42.012,242.817-42.015,335.245,0l72.641,33.019
			c1.478,0.671,3.046,0.997,4.603,0.997c2.893,0,5.74-1.128,7.874-3.26C512.02,505.458,512.922,500.487,511.003,496.262z
			 M432.834,457.716C384.08,435.556,320.041,424.477,256,424.477s-128.081,11.079-176.835,33.239l-45.618,20.736l20.736-45.618
			c44.319-97.507,44.319-256.163,0-353.669L33.547,33.546l45.618,20.736c97.505,44.319,256.161,44.322,353.669,0l45.619-20.736
			l-20.736,45.619c-44.32,97.505-44.32,256.16,0,353.669l20.736,45.618L432.834,457.716z"/>
	</g>
</g>
<g>
</g>
<g>
</g>
<g>
</g>
<g>
</g>
<g>
</g>
<g>
</g>
<g>
</g>
<g>
</g>
<g>
</g>
<g>
</g>
<g>
</g>
<g>
</g>
<g>
</g>
<g>
</g>
<g>
</g>
</svg>
