<svg id="Capa_1" enable-background="new 0 0 512.002 512.002" height="512" viewBox="0 0 512.002 512.002" width="512" xmlns="http://www.w3.org/2000/svg"><g><path clip-rule="evenodd" d="m248.465 1.5c7.359-3.048 15.829-1.363 21.461 4.269l236.307 236.308c7.691 7.69 7.691 20.159 0 27.849l-236.307 236.307c-5.632 5.632-14.102 7.317-21.461 4.269-7.358-3.048-12.156-10.229-12.156-18.194v-98.461h-196.924c-10.445 0-20.463-4.15-27.849-11.536s-11.535-17.403-11.535-27.849v-196.923c0-10.445 4.149-20.463 11.535-27.849s17.404-11.536 27.849-11.536h196.923v-98.461c.001-7.965 4.799-15.145 12.157-18.193zm27.228 65.734v70.613c0 10.875-8.816 19.692-19.692 19.692h-216.616v196.923h216.615c10.876 0 19.692 8.817 19.692 19.692v70.613l188.768-188.766z" fill-rule="evenodd"/></g></svg>