<svg id="Capa_1" enable-background="new 0 0 512.002 512.002" height="512" viewBox="0 0 512.002 512.002" width="512" xmlns="http://www.w3.org/2000/svg"><g><path clip-rule="evenodd" d="m263.537 1.5c7.358 3.048 12.156 10.229 12.156 18.193v98.461h196.923c10.446 0 20.463 4.15 27.85 11.536 7.386 7.386 11.535 17.404 11.535 27.849v196.923c0 10.446-4.149 20.463-11.535 27.849-7.387 7.386-17.404 11.536-27.85 11.536h-196.923v98.461c0 7.965-4.798 15.146-12.156 18.194-7.359 3.048-15.829 1.363-21.461-4.269l-236.308-236.308c-7.69-7.69-7.69-20.159 0-27.849l236.308-236.308c5.632-5.632 14.102-7.316 21.461-4.268zm-215.995 254.501 188.767 188.766v-70.613c0-10.875 8.816-19.692 19.692-19.692h216.615v-196.923h-216.615c-10.876 0-19.692-8.817-19.692-19.692v-70.613z" fill-rule="evenodd"/></g></svg>