<svg id="Layer_1" enable-background="new 0 0 60 60" height="512" viewBox="0 0 60 60" width="512" xmlns="http://www.w3.org/2000/svg"><path d="m47.1 21.38c-.81 0-1.61.12-2.37.37-.9-3.4-4.03-5.9-7.64-5.9-.48 0-.96.04-1.44.13-1.4-2.41-4-3.92-6.82-3.92-2.71 0-5.17 1.35-6.61 3.59-.78-.25-1.59-.38-2.42-.38-3.73 0-6.91 2.59-7.7 6.16-3.98.39-7.1 3.76-7.1 7.85 0 3.52 2.32 6.58 5.63 7.56.34 4.04 3.74 7.23 7.87 7.23 1.38 0 2.7-.35 3.88-1.02 1.81 3.01 5.09 4.9 8.65 4.9 2.81 0 5.44-1.15 7.35-3.18 1.27.81 2.75 1.25 4.26 1.25 4.36 0 7.9-3.54 7.9-7.9 0-.55-.06-1.1-.18-1.64 2.81-1.26 4.65-4.05 4.65-7.2-.01-4.36-3.55-7.9-7.91-7.9zm1.75 13.53c-.26.08-.47.26-.6.5-.12.24-.14.52-.05.78.22.63.33 1.28.33 1.92 0 3.25-2.65 5.9-5.9 5.9-1.38 0-2.72-.49-3.78-1.37-.21-.17-.48-.25-.75-.23-.27.03-.52.17-.68.38-1.55 2-3.88 3.15-6.4 3.15-3.17 0-6.06-1.87-7.37-4.76-.13-.28-.38-.49-.67-.56-.08-.02-.16-.03-.24-.03-.22 0-.44.07-.62.21-1.05.82-2.31 1.26-3.63 1.26-3.25 0-5.9-2.65-5.9-5.88 0-.01.01-.11.01-.12.01-.49-.33-.92-.81-1.01-2.77-.51-4.79-2.94-4.79-5.77 0-3.25 2.65-5.9 5.83-5.9.54.05 1.05-.35 1.11-.88.33-2.98 2.85-5.24 5.86-5.24.85 0 1.67.18 2.45.54.49.22 1.07.02 1.31-.46 1.01-2.02 3.03-3.28 5.28-3.28 2.32 0 4.43 1.37 5.38 3.49.21.46.72.69 1.2.55.55-.17 1.12-.25 1.68-.25 3.03 0 5.61 2.37 5.87 5.39.03.33.22.63.51.79s.65.17.94.01c.84-.43 1.74-.65 2.68-.65 3.25 0 5.9 2.65 5.9 5.9 0 2.59-1.67 4.85-4.15 5.62z"/></svg>