<?xml version="1.0" encoding="utf-8"?>
<!-- Generator: Adobe Illustrator 27.5.0, SVG Export Plug-In . SVG Version: 6.00 Build 0)  -->
<svg version="1.1" id="Layer_1" xmlns="http://www.w3.org/2000/svg" xmlns:xlink="http://www.w3.org/1999/xlink" x="0px" y="0px"
	 viewBox="0 0 512 512" style="enable-background:new 0 0 512 512;" xml:space="preserve">
<style type="text/css">
	.st0{fill:#FFFFFF;}
</style>
<rect x="91.5" y="133.5" class="st0" width="329" height="245"/>
<g id="Glyph">
	<path d="M256,26.7C129.3,26.7,26.7,129.3,26.7,256S129.3,485.3,256,485.3S485.3,382.7,485.3,256C485.2,129.4,382.6,26.8,256,26.7z
		 M331.3,308.7c6.2,6.2,6.2,16.4,0,22.6c-6.2,6.2-16.4,6.2-22.6,0L256,278.6l-52.7,52.7c-6.2,6.2-16.4,6.2-22.6,0
		c-6.2-6.2-6.2-16.4,0-22.6l52.7-52.7l-52.7-52.7c-6-6.5-5.7-16.6,0.8-22.6c6.1-5.7,15.7-5.7,21.8,0l52.7,52.7l52.7-52.7
		c6.5-6,16.6-5.7,22.6,0.8c5.7,6.1,5.7,15.7,0,21.8L278.6,256L331.3,308.7z"/>
</g>
</svg>
