<svg height="512" viewBox="0 0 24 24" width="512" xmlns="http://www.w3.org/2000/svg"><g id="Layer_2" data-name="Layer 2"><path d="m20.387 1h-12.774a2.612 2.612 0 0 0 -2.533 2h11.98a3.952 3.952 0 0 1 3.94 3.94v11.98a2.612 2.612 0 0 0 2-2.533v-12.774a2.613 2.613 0 0 0 -2.613-2.613z"/><path d="m16.387 5h-12.774a2.616 2.616 0 0 0 -2.613 2.613v12.774a2.616 2.616 0 0 0 2.613 2.613h12.774a2.616 2.616 0 0 0 2.613-2.613v-12.774a2.616 2.616 0 0 0 -2.613-2.613zm-2.387 10h-3v3a1 1 0 0 1 -2 0v-3h-3a1 1 0 0 1 0-2h3v-3a1 1 0 0 1 2 0v3h3a1 1 0 0 1 0 2z"/></g></svg>