<svg fill="none" height="512" viewBox="0 0 24 24" width="512" xmlns="http://www.w3.org/2000/svg"><path d="m20.3833 14.678c-1.1206-4.1818-5.419-6.66349-9.6008-5.54297-2.52846.67749-4.39837 2.50777-5.24981 4.78827l1.94337-.5268c.39979-.1084.81173.1279.92011.5277.10838.3997-.12785.8117-.52764.9201l-3.17826.8616c-.03002.0102-.06079.0186-.09213.0249l-.41397.1123c-.19235.0521-.39754.0255-.57028-.0738-.17274-.0994-.29882-.2635-.3504-.456l-.98799-3.6873c-.10721-.4001.13023-.8113.53033-.9185s.81135.1302.91856.5303l.50753 1.8942c1.05604-2.586 3.23692-4.662 6.16238-5.44586 4.982-1.33494 10.1029 1.62163 11.4378 6.60366.1073.4001-.1302.8114-.5303.9186s-.8113-.1303-.9185-.5304z" fill="rgb(0,0,0)"/></svg>