<?xml version="1.0" encoding="UTF-8"?>
<svg xmlns="http://www.w3.org/2000/svg" xmlns:xlink="http://www.w3.org/1999/xlink" xmlns:svgjs="http://svgjs.com/svgjs" version="1.1" width="512" height="512" x="0" y="0" viewBox="0 0 24 24" style="enable-background:new 0 0 512 512" xml:space="preserve" class="">
  <g transform="matrix(-1,0,0,1,24.107014656066895,0)">
    <path fill="#000000" d="M20.383 14.678a7.84 7.84 0 0 0-9.6-5.543c-2.529.678-4.399 2.508-5.25 4.788l1.943-.526a.75.75 0 0 1 .393 1.447l-3.179.862a.74.74 0 0 1-.092.025l-.414.112a.75.75 0 0 1-.92-.53l-.989-3.687a.75.75 0 1 1 1.45-.388l.507 1.894c1.056-2.586 3.237-4.662 6.162-5.446a9.339 9.339 0 0 1 11.438 6.604.75.75 0 1 1-1.449.388z" data-original="#000000" class=""/>
  </g>
</svg>
