<svg id="Layer_1" enable-background="new 0 0 512 512" height="512" viewBox="0 0 512 512" width="512" xmlns="http://www.w3.org/2000/svg"><path clip-rule="evenodd" d="m465.455 325.816v116.367c0 6.121-2.412 12.008-6.804 16.342l-.112.108c-4.367 4.429-10.254 6.821-16.354 6.821h-372.369c-6.1 0-11.987-2.392-16.246-6.708l-.108-.113c-4.504-4.442-6.916-10.329-6.916-16.45v-116.367h-46.547v116.367c0 18.5 7.325 36.271 20.566 49.383 12.935 13.046 30.739 20.434 49.251 20.434h372.367c18.521 0 36.334-7.392 49.288-20.475 13.209-13.092 20.529-30.85 20.529-49.342v-116.367zm-232.726-246.359v316.18h46.541v-316.18l99.909 99.909 32.912-32.913-139.633-139.637c-9.091-9.087-23.825-9.087-32.916 0l-139.634 139.637 32.913 32.913z" fill="rgb(0,0,0)" fill-rule="evenodd"/></svg>